<?xml version="1.0" encoding="utf-8"?>
<svg xmlns="http://www.w3.org/2000/svg" id="Layer_1" style="enable-background:new 0 0 90 75;" version="1.1" viewBox="0 0 90 75" x="0px" y="0px">
<style type="text/css">
	.st0{fill:#016341;}
	.st1{fill:#231F20;}
</style>
<rect class="st0" height="43.7522354" transform="matrix(-1 -4.463775e-11 4.463775e-11 -1 38.0252991 92.0747604)" width="9.9429865" x="14.0411568" y="24.1612625"/>
<rect class="st0" height="26.0197792" transform="matrix(-1 -4.427226e-11 4.427226e-11 -1 72.9764023 109.8072128)" width="9.9429865" x="31.5167084" y="41.8937187"/>
<rect class="st0" height="32.9026604" transform="matrix(-1 -4.463775e-11 4.463775e-11 -1 107.9275055 102.9243317)" width="9.9429865" x="48.99226" y="35.0108376"/>
<rect class="st0" height="17.9758224" transform="matrix(-1 -4.500368e-11 4.500368e-11 -1 142.8786163 117.8511734)" width="9.9429865" x="66.4678116" y="49.9376755"/>
<rect class="st1" height="2" width="69.7519531" x="10.1240234" y="66.9130859"/>
<polygon class="st1" points="74.1298828,38.4423828 53.8310547,19.800293 36.2495117,30.0664062 18.2338867,7.7138672 &#xA;	19.7915039,6.4589844 36.7270508,27.4716797 54.0966797,17.3286133 75.4833984,36.9697266"/>
<polygon class="st1" points="76.7783203,39.8398438 68.5634766,39.671875 68.6044922,37.671875 74.6708984,37.7963867 &#xA;	74.3623047,31.7373047 76.3603516,31.6357422"/>
</svg>