<?xml version="1.0" encoding="utf-8"?>
<svg xmlns="http://www.w3.org/2000/svg" id="Layer_1" style="enable-background:new 0 0 90 75;" version="1.1" viewBox="0 0 90 75" x="0px" y="0px">
<style type="text/css">
	.st0{fill:#016341;}
	.st1{fill:#231F20;}
</style>
<g id="XMLID_2_">
	<g>
		<path class="st0" d="M63.4130211,12.5197563c-0.9700012,0.8899994-1.7000008,2.4099998-1.7000008,2.4099998&#xA;			s-2.1599998,2.8199997-2.2099991-1.46c-0.0200005-1.6099997-0.2000008-2.79-0.4300003-3.6400003&#xA;			C60.5930214,10.6097565,62.0430222,11.5097561,63.4130211,12.5197563z"/>
		<path class="st0" d="M58.8930206,45.6497574c1.5099983,0.7099991,1.5099983,1.6499977,0.4300003,2.8699989&#xA;			c-1.0800018,1.2200012-0.8500023,2.2000008-0.8500023,2.2000008c-0.329998,3.8099976-2.4899979,3.8600006-2.4899979,3.8600006&#xA;			s-0.8500023-0.1000023-1.3600006,2.0199966c-0.5200005,2.1100006-2.8699989,5.2600021-2.8699989,5.2600021&#xA;			s-1.1300011,1.2700005-1.8300018,3.0500031c-0.4099998,1.0499954,0.0600014,2.1399994,0.5300026,2.859993&#xA;			c-1.420002,0.25-2.8700027,0.4100037-4.3500023,0.4600067c-0.4599991-0.9500046-0.9099998-2.6399994-0.4599991-5.3900032&#xA;			c0.7999992-4.7900009-0.7000008-8.9700012-0.8199997-10c-0.1300011-1.0400009-1.3400002-1.829998-1.3400002-1.829998&#xA;			c-5.9599991-4.9800034-2.4399986-10.4300003-2.4399986-10.4300003c-1.4800034-0.5800018-2.0600014-1.0500031-2.8100014-2.0400009&#xA;			l2.6599998-0.4500008c0.3600006,0.3300018,0.7099991,0.5099983,0.7099991,0.5099983&#xA;			c4.7999992-2.7199974,8.7000008,1.3200035,11,3.4800034S57.3930206,44.9497566,58.8930206,45.6497574z"/>
		<path class="st0" d="M37.8930206,38.089756c-0.9399986-1.3199997-2.1599998-1.1300011-2.7200012-1.1599998&#xA;			c-0.5599976-0.0299988-1.3600006-0.4399986-1.3600006-0.4399986c-4.6999989-0.9400024-5.3099976-6.1500015-5.4799976-7.2300014&#xA;			c-0.1599998-1.0799999-0.6800003-1.5100002-0.6800003-1.5100002s-1.5-0.9400005-1.5900002-2.0599995&#xA;			c-0.1000004-1.1300011,0.4699993-1.9799995,1.6900005-3.5699997c1.2199993-1.6000004,0.1799984-2.6400013,0-4.8000011&#xA;			c-0.1900005-2.1599998-1.9800014-1.6899996-3.1000004-1.6899996c-0.4300003,0-1.210001,0.1599998-2.0100002,0.3699999&#xA;			c1.9099998-1.9899998,4.0799999-3.7299995,6.4499989-5.1599998c1.2600002,0.2300005,2.7600002,0.5699997,4.0599995,1.0699997&#xA;			c2.8600006,1.0900002,5.8199997,0.9500008,6.7600021-0.9799995c0.7799988-1.5900002,3.8800011-2.8599997,8.7700005-4.27&#xA;			c2.4599991,0.29,4.829998,0.8699999,7.079998,1.7099996c-1.0200005,2.1800003-3.25,3.1500006-4.5999985,3.6300001&#xA;			c-0.1100006,0.04-0.2099991,0.0799999-0.2999992,0.1100006c-1.5,0.5199995-4.3700027,0.7999992-6.6200027,2.25&#xA;			c-2.2599983,1.46-0.7599983,2.8699989,0.7600021,4.4699993c1.5099983,1.5900002,2.5200005-0.4699993,2.5200005-0.4699993&#xA;			s0.4300003-1.3199997,1.7399979-3.1500006c0.5600014-0.7799997,1.2900009-1.25,2.0300026-1.2699995&#xA;			c1.0099983-0.04,2.0599976,0.7199993,2.8099976,2.5799999c1.3199997,3.25-1.2700005,5.1700001-2.6800003,5.3099995&#xA;			c-1.4099998,0.1400013-3.5200005,1.3199997-4.2700005,2.6300011c-0.75,1.3199997-1.6499977,2.0199986-2.329998,2.8699989&#xA;			c-0.6900024,0.8500004-1.5200005,1.0799999-1.5200005,2.9099998s-0.4700012,1.460001-1.9300003-0.039999&#xA;			c-1.4599991-1.5100002-3.0099983-0.5200005-4.5099983,0.3199997c-1.5,0.8500004-0.9900017,1.4599991-0.8900032,2.9599991&#xA;			c0.0900002,1.5100021,0.8400002,1.4099998,2.6300011,0.2900009c1.7799988-1.1300011,1.7400017,1.4000015,1.6000023,2.7200012&#xA;			c-0.0800018,0.6899986,0.3099976,1.2399979,0.6899986,1.5999985l-2.6599998,0.4500008&#xA;			C38.1230202,38.3997574,38.0130196,38.2497559,37.8930206,38.089756z"/>
	</g>
	<g>
	</g>
</g>
<path class="st1" d="M45,69.2480469c-17.5917969,0-31.9038086-14.3115234-31.9038086-31.9038086&#xA;	C13.0961914,19.7524414,27.4082031,5.4404297,45,5.4404297s31.9033203,14.3120117,31.9033203,31.9038086&#xA;	C76.9033203,54.9365234,62.5917969,69.2480469,45,69.2480469z M45,7.4404297&#xA;	c-16.4892578,0-29.9038086,13.4145508-29.9038086,29.9038086c0,16.4887695,13.4145508,29.9038086,29.9038086,29.9038086&#xA;	c16.4882812,0,29.9033203-13.4150391,29.9033203-29.9038086C74.9033203,20.8549805,61.4882812,7.4404297,45,7.4404297z"/>
</svg>