<?xml version="1.0" encoding="utf-8"?>
<svg xmlns="http://www.w3.org/2000/svg" id="Layer_1" style="enable-background:new 0 0 90 75;" version="1.1" viewBox="0 0 90 75" x="0px" y="0px">
<style type="text/css">
	.st0{fill:#016341;}
	.st1{fill:#231F20;}
</style>
<path class="st0" d="M27.2895908,54.1182327h58.8674164c0,0,0.2982483-10.8861351-8.5001373-13.8686371&#xA;	c-4.9794998-1.6879654-7.5229416-1.7996635-10.5769653-2.7951241c0,0-10.3750801,6.7638054-20.2750359,7.0082512&#xA;	c-9.8999519,0.244442-17.0417671-3.3543167-25.299881-7.3354492c-6.2143068-2.9958382-17.5541649-2.5323677-17.5541649-2.5323677&#xA;	c-0.0887232,1.4723549,0.1042647,3.01297,0.094131,4.5938339C4.0449524,39.1887398,23.0729446,38.6145325,27.2895908,54.1182327z"/>
<path class="st1" d="M86.6333008,54.0571289c-0.0338745-1.7994995-0.6150513-11.6533813-9.1772461-14.5561523&#xA;	c-2.9160156-0.9882812-5-1.4433594-6.8398438-1.8452148c-3.640625-0.7954102-6.2714844-1.3701172-12.7519531-5.7885742&#xA;	c-9.7363281-6.6381836-15.9082031-10.7055664-15.9697266-10.7456055l-0.1552734-0.0839844&#xA;	c-0.0268555-0.0117188-2.6948242-1.1806641-3.9580078-3.2724609c-1.5253906-2.5249023-5.0014648-5.3203125-7.5566406-4.0048828&#xA;	c-0.8684692,0.4470825-5.0111694,3.1654663-3.4927979,13.1355591c-0.5928955,0.3189697-1.2197876,0.661499-1.9085693,1.0490112&#xA;	c-3.6347656,2.0444336-9.0683594,0.9296875-10.7695312,0.5043945c-0.5927734-2.1337891-2.7158203-8.6816406-6.4648438-8.7602539&#xA;	c-0.4838867-0.0063477-1.2045898,0.1513672-1.9130859,0.980957c-3.3410645,3.9112549-4.4398193,20.7123413-2.2409058,33.5829468&#xA;	c-1.456665,3.1816406-0.7347412,7.2264404-0.7014771,7.4043579l0.1518555,0.8173828h83.3481445l0.2832031-0.5263672&#xA;	C86.6109009,61.7739258,88.7321167,57.7210083,86.6333008,54.0571289z M7.1967773,21.96875&#xA;	c0.1992188-0.2333984,0.3256836-0.2797852,0.3500977-0.2797852c2.1201172,0.0439453,4.0932617,5.2832031,4.7163086,7.8134766&#xA;	l0.1357422,0.5512695l0.5429688,0.1660156c0.3154297,0.097168,7.7773438,2.3286133,12.8618164-0.5317383&#xA;	c4.6376953-2.6088867,7.0854492-3.5854492,7.1098633-3.5952148l-0.7333984-1.8608398&#xA;	c-0.071106,0.0281982-1.289978,0.5189819-3.5785522,1.6845703c-0.8602295-6.6729126,1.1375122-9.6570435,2.5380249-10.3779297&#xA;	c1.1162109-0.5751953,3.6064453,1.0693359,4.9296875,3.2607422c1.472168,2.4379883,4.2509766,3.7905273,4.793457,4.0375977&#xA;	c0.3546143,0.2338257,2.0761719,1.371521,4.8772583,3.2476196l-3.6487427,4.1400757l1.5,1.3222656l3.8236694-4.338623&#xA;	c0.93573,0.6286621,1.9493408,1.3112183,3.0554199,2.0582275l-3.9157104,4.4429932l1.5,1.3222656l4.0856934-4.6358032&#xA;	c0.9692993,0.656311,1.9891357,1.3483887,3.0595703,2.0765991l-3.6940918,4.1920166l1.5,1.3222656l3.8605347-4.3808594&#xA;	c6.7051392,4.5540161,9.4870605,5.1661987,13.3230591,6.003418C71.9775391,40,74.0039062,40.4433594,76.8134766,41.3955078&#xA;	c6.5976562,2.2363281,7.6396484,9.3037109,7.796875,11.9208984h-57.107605&#xA;	C23.2932129,39.8011475,7.9744263,38.5120239,4.2967529,38.3982544C4.4489136,30.3436279,5.6863403,23.7365723,7.1967773,21.96875z&#xA;	 M5.3048706,53.3164062c-0.7017212-4.3190918-1.0081787-8.7693481-1.0233765-12.9250488&#xA;	c1.4992676,0.0388184,5.1287842,0.2833252,9.0158691,1.6125488c6.1746216,2.1120605,10.2403564,5.9155884,12.111084,11.3125&#xA;	H5.3048706z M84.9873047,60.4746094H4.5942383c-0.1123657-1.1660156-0.1765137-3.3568726,0.5626831-5.1582031h79.8704224&#xA;	C85.9972534,57.2972412,85.374939,59.4909668,84.9873047,60.4746094z"/>
</svg>