<?xml version="1.0" encoding="utf-8"?>
<svg xmlns="http://www.w3.org/2000/svg" id="Layer_1" style="enable-background:new 0 0 90 75;" version="1.1" viewBox="0 0 90 75" x="0px" y="0px">
<style type="text/css">
	.st0{fill:#231F20;}
	.st1{fill:#016341;}
</style>
<path class="st0" d="M26.7954102,60.0771484c-3.9306641,0-7.1289062-3.1982422-7.1289062-7.1298828&#xA;	c0-3.9306641,3.1982422-7.1289062,7.1289062-7.1289062c3.9311523,0,7.1293945,3.1982422,7.1293945,7.1289062&#xA;	C33.9248047,56.8789062,30.7265625,60.0771484,26.7954102,60.0771484z M26.7954102,47.8183594&#xA;	c-2.828125,0-5.1289062,2.3007812-5.1289062,5.1289062c0,2.8291016,2.3007812,5.1298828,5.1289062,5.1298828&#xA;	s5.1293945-2.3007812,5.1293945-5.1298828C31.9248047,50.1191406,29.6235352,47.8183594,26.7954102,47.8183594z"/>
<path class="st0" d="M36.940918,69.8027344c-0.1166992-4.4257812-3.6411133-5.6025391-4.8847656-5.8808594l-5.2607422,4.6611328&#xA;	l-5.2573242-4.6582031c-1.2412109,0.2851562-4.7719727,1.4824219-4.8876953,5.8779297L14.6513672,69.75&#xA;	c0.1464844-5.5732422,4.684082-7.5976562,7.0625-7.8896484l0.4477539-0.0556641l4.6337891,4.1064453l4.6342773-4.1064453&#xA;	l0.4477539,0.0556641c2.378418,0.2919922,6.9155273,2.3164062,7.0625,7.8896484L36.940918,69.8027344z"/>
<path class="st0" d="M59.9277344,60.0771484c-3.9316406,0-7.1298828-3.1982422-7.1298828-7.1298828&#xA;	c0-3.9306641,3.1982422-7.1289062,7.1298828-7.1289062c3.9306641,0,7.1289062,3.1982422,7.1289062,7.1289062&#xA;	C67.0566406,56.8789062,63.8583984,60.0771484,59.9277344,60.0771484z M59.9277344,47.8183594&#xA;	c-2.8291016,0-5.1298828,2.3007812-5.1298828,5.1289062c0,2.8291016,2.3007812,5.1298828,5.1298828,5.1298828&#xA;	c2.828125,0,5.1289062-2.3007812,5.1289062-5.1298828C65.0566406,50.1191406,62.7558594,47.8183594,59.9277344,47.8183594z"/>
<path class="st0" d="M70.0722656,69.8027344c-0.1162109-4.4257812-3.640625-5.6025391-4.8847656-5.8808594l-5.2597656,4.6611328&#xA;	l-5.2578125-4.6582031c-1.2412109,0.2851562-4.7714844,1.4824219-4.8867188,5.8779297l-2-0.0527344&#xA;	c0.1464844-5.5732422,4.6835938-7.5976562,7.0625-7.8896484l0.4472656-0.0556641l4.6347656,4.1064453l4.6328125-4.1064453&#xA;	l0.4482422,0.0556641c2.3789062,0.2919922,6.9160156,2.3164062,7.0634766,7.8896484L70.0722656,69.8027344z"/>
<path class="st1" d="M66.9054871,33.8650665v7.9290123l-8.5762863-7.9290199l-23.7369041,0.0000076&#xA;	c-1.8965607,0-3.4482918-1.5517311-3.4482918-3.4482918L31.1439972,8.6718073c0-1.8965607,1.5517311-3.4482927,3.4482918-3.4482932&#xA;	l36.3084679-0.0000105c1.8965607-0.000001,3.4482956,1.5517302,3.4482956,3.4482913l0.0000076,21.7449665&#xA;	c0,1.8965626-1.5517349,3.4482937-3.4482956,3.4482937h-3.9952774V33.8650665z"/>
<path class="st0" d="M37.1494141,52.2431641v-9.2148438H19.7861328c-2.4526367,0-4.4482422-1.9951172-4.4482422-4.4482422&#xA;	V19.7089844c0-2.453125,1.9956055-4.4487305,4.4482422-4.4487305H31.144043v2H19.7861328&#xA;	c-1.3500977,0-2.4482422,1.0986328-2.4482422,2.4487305v18.8710938c0,1.3496094,1.0981445,2.4482422,2.4482422,2.4482422h19.3632812&#xA;	v6.6425781l7.1845703-6.6425781h4.5878906c1.3496094,0,2.4482422-1.0986328,2.4482422-2.4482422v-4.7148438h2v4.7148438&#xA;	c0,2.453125-1.9951172,4.4482422-4.4482422,4.4482422h-3.8046875L37.1494141,52.2431641z"/>
</svg>