<?xml version="1.0" encoding="utf-8"?>
<svg xmlns="http://www.w3.org/2000/svg" id="Layer_1" style="enable-background:new 0 0 90 75;" version="1.1" viewBox="0 0 90 75" x="0px" y="0px">
<style type="text/css">
	.st0{fill:#231F20;}
	.st1{fill:#016341;}
	.st2{fill:#FFFFFF;}
</style>
<path class="st0" d="M43.1855469,70.6689453c-18.2890625,0-33.168457-14.8798828-33.168457-33.1689453&#xA;	S24.8964844,4.331543,43.1855469,4.331543c6.1982422,0,12.2431641,1.7207031,17.4824219,4.9755859l-1.0546875,1.6992188&#xA;	C54.6904297,7.9477539,49.0107422,6.331543,43.1855469,6.331543c-17.1865234,0-31.168457,13.9819336-31.168457,31.168457&#xA;	s13.9819336,31.1689453,31.168457,31.1689453S74.3544922,54.6865234,74.3544922,37.5&#xA;	c0-3.1040039-0.4550781-6.1689453-1.3515625-9.109375l1.9121094-0.5839844&#xA;	c0.9550781,3.1298828,1.4394531,6.3911133,1.4394531,9.6933594C76.3544922,55.7890625,61.4746094,70.6689453,43.1855469,70.6689453z"/>
<g>
	<path class="st0" d="M42.6030273,39.0830078c-4.7280273,0-8.574707-3.8466797-8.574707-8.5751953&#xA;		c0-4.7280273,3.8466797-8.574707,8.574707-8.574707s8.574707,3.8466797,8.574707,8.574707&#xA;		C51.1777344,35.2363281,47.3310547,39.0830078,42.6030273,39.0830078z M42.6030273,23.9331055&#xA;		c-3.6254883,0-6.574707,2.9492188-6.574707,6.574707s2.9492188,6.5751953,6.574707,6.5751953s6.574707-2.949707,6.574707-6.5751953&#xA;		S46.2285156,23.9331055,42.6030273,23.9331055z"/>
	<path class="st0" d="M57.0048828,52.0664062h-2v-3.4960938c0-3.5742188-4.6582031-4.5488281-6.1796875-4.7714844&#xA;		l-5.6396484,6.2666016l-5.6391602-6.2666016c-1.5214844,0.2226562-6.1791992,1.1972656-6.1791992,4.7714844v3.4960938h-2&#xA;		v-3.4960938c0-4.8798828,5.5585938-6.5966797,8.4980469-6.8232422l0.4907227-0.0380859l4.8295898,5.3662109l4.8300781-5.3662109&#xA;		l0.4912109,0.0380859c2.9394531,0.2265625,8.4980469,1.9433594,8.4980469,6.8232422V52.0664062z"/>
</g>
<path class="st1" d="M68.1804047,32.8854103c-4.3821602-1.7912731-7.5255775-4.3900032-9.353199-7.7358799&#xA;	c-1.2678719-2.3214741-1.4350395-4.2294712-1.447422-4.406971V9.2645292l10.8015442-2.567771l10.8015366,2.567771V20.723526&#xA;	C78.9397583,21.3920135,78.2350769,28.7618847,68.1804047,32.8854103z"/>
<polygon class="st2" points="66.1630859,25.6416016 61.5712891,21.4248047 62.9248047,19.9521484 66.0048828,22.7802734 &#xA;	73.7207031,13.9257812 75.2285156,15.2402344"/>
</svg>